<svg width="32" height="32" viewBox="0 0 32 32" fill="none" xmlns="http://www.w3.org/2000/svg">
  <defs>
    <linearGradient id="bgGradient" x1="0%" y1="0%" x2="100%" y2="100%">
      <stop offset="0%" style="stop-color:#10B981;stop-opacity:1" />
      <stop offset="100%" style="stop-color:#059669;stop-opacity:1" />
    </linearGradient>
    <linearGradient id="shieldGradient" x1="0%" y1="0%" x2="100%" y2="100%">
      <stop offset="0%" style="stop-color:#FFFFFF;stop-opacity:1" />
      <stop offset="100%" style="stop-color:#F3F4F6;stop-opacity:1" />
    </linearGradient>
    <linearGradient id="chainGradient" x1="0%" y1="0%" x2="100%" y2="100%">
      <stop offset="0%" style="stop-color:#3B82F6;stop-opacity:1" />
      <stop offset="100%" style="stop-color:#1D4ED8;stop-opacity:1" />
    </linearGradient>
  </defs>
  
  <circle cx="16" cy="16" r="15" fill="url(#bgGradient)" stroke="#FFFFFF" stroke-width="1"/>
  
  <path d="M16 4L10 8V14C10 18 13 21 16 22C19 21 22 18 22 14V8L16 4Z" 
        fill="url(#shieldGradient)" 
        stroke="#10B981" 
        stroke-width="1"/>
  
  <rect x="14" y="12" width="4" height="3" rx="0.5" fill="#10B981"/>
  <path d="M15 12V10C15 9.5 15.5 9 16 9C16.5 9 17 9.5 17 10V12" 
        stroke="#10B981" 
        stroke-width="1" 
        fill="none"/>
  
  <circle cx="12" cy="16" r="0.8" fill="#10B981" opacity="0.7"/>
  <circle cx="20" cy="16" r="0.8" fill="#10B981" opacity="0.7"/>
  <circle cx="16" cy="18" r="0.6" fill="#10B981" opacity="0.5"/>
  
  <circle cx="8" cy="24" r="2" fill="url(#chainGradient)" opacity="0.9"/>
  <circle cx="12" cy="24" r="2" fill="url(#chainGradient)" opacity="0.7"/>
  <circle cx="16" cy="24" r="2" fill="url(#chainGradient)" opacity="0.5"/>
  <circle cx="20" cy="24" r="2" fill="url(#chainGradient)" opacity="0.3"/>
  <circle cx="24" cy="24" r="2" fill="url(#chainGradient)" opacity="0.1"/>
  
  <path d="M10 24L11 24" stroke="url(#chainGradient)" stroke-width="1.5" opacity="0.7"/>
  <path d="M14 24L15 24" stroke="url(#chainGradient)" stroke-width="1.5" opacity="0.5"/>
  <path d="M18 24L19 24" stroke="url(#chainGradient)" stroke-width="1.5" opacity="0.3"/>
  <path d="M22 24L23 24" stroke="url(#chainGradient)" stroke-width="1.5" opacity="0.1"/>
  
  <path d="M6 8L8 6" stroke="#10B981" stroke-width="1" opacity="0.6"/>
  <path d="M26 8L24 6" stroke="#10B981" stroke-width="1" opacity="0.6"/>
  <path d="M6 12L8 10" stroke="#10B981" stroke-width="1" opacity="0.4"/>
  <path d="M26 12L24 10" stroke="#10B981" stroke-width="1" opacity="0.4"/>
</svg>
